<?xml version="1.0" standalone="no"?>
<!DOCTYPE svg PUBLIC "-//W3C//DTD SVG 20010904//EN"
 "http://www.w3.org/TR/2001/REC-SVG-20010904/DTD/svg10.dtd">
<svg version="1.0" xmlns="http://www.w3.org/2000/svg"
 width="4167.000000pt" height="4167.000000pt" viewBox="0 0 4167.000000 4167.000000"
 preserveAspectRatio="xMidYMid meet">
<metadata>
Created by potrace 1.11, written by Peter Selinger 2001-2013
</metadata>
<g transform="translate(0.000000,4167.000000) scale(0.100000,-0.100000)"
fill="#000000" stroke="none">
<path d="M12713 35528 c-47 -10 -102 -63 -104 -101 -7 -121 34 -170 220 -262
90 -45 127 -69 173 -116 32 -33 58 -64 58 -70 0 -21 42 -70 80 -94 101 -64
250 -71 413 -19 48 15 87 30 87 33 -1 3 -30 38 -66 76 -104 112 -133 160 -198
335 -23 61 -108 165 -155 189 -25 13 -69 22 -132 26 -155 10 -331 12 -376 3z"/>
<path d="M11895 35291 c-81 -20 -155 -79 -203 -161 -22 -37 -27 -56 -26 -115
1 -109 31 -161 154 -265 166 -140 174 -154 133 -235 -11 -22 -34 -67 -51 -100
-64 -128 -71 -228 -24 -347 31 -77 39 -118 47 -233 3 -38 7 -93 10 -121 3 -28
8 -80 10 -115 17 -218 25 -315 30 -359 2 -19 7 -62 10 -95 4 -33 8 -73 10 -90
2 -16 6 -61 10 -100 3 -38 8 -79 10 -90 2 -11 7 -58 10 -105 4 -47 8 -96 11
-110 2 -14 6 -110 9 -215 5 -187 13 -342 20 -387 2 -13 7 -50 10 -83 10 -78
12 -91 20 -145 10 -61 11 -75 20 -150 4 -36 9 -72 10 -80 5 -33 -18 -72 -50
-86 -60 -25 -190 -39 -325 -35 -253 8 -426 3 -511 -14 -89 -19 -140 -17 -209
5 -90 29 -143 23 -250 -25 -44 -20 -90 -38 -101 -40 -42 -8 -144 -63 -178 -96
-74 -71 -105 -139 -176 -374 -20 -66 -43 -142 -52 -170 -46 -152 -168 -628
-178 -700 -4 -27 -9 -86 -11 -129 -2 -43 -10 -102 -18 -130 -8 -28 -20 -78
-27 -111 -7 -33 -14 -64 -15 -70 -2 -5 -17 -59 -33 -120 -34 -121 -34 -119
-55 -225 -24 -123 -26 -151 -31 -460 -3 -162 -7 -322 -9 -355 -2 -33 -7 -112
-10 -175 -3 -63 -8 -162 -11 -220 -3 -58 -7 -145 -10 -195 -2 -49 -8 -151 -12
-225 -13 -229 -8 -571 12 -691 2 -13 6 -64 10 -114 4 -49 8 -92 10 -95 2 -3 6
-32 9 -64 8 -77 21 -130 56 -246 40 -129 52 -187 65 -300 3 -30 8 -66 10 -80
2 -14 6 -56 10 -95 21 -241 49 -332 150 -490 28 -44 77 -107 108 -140 145
-155 356 -365 392 -391 22 -16 49 -37 60 -47 45 -41 132 -91 287 -165 90 -43
190 -96 222 -116 68 -43 88 -52 141 -60 22 -4 91 -20 154 -37 64 -16 123 -32
131 -34 8 -2 67 -18 130 -35 101 -28 136 -32 280 -37 271 -8 264 -1 275 -277
3 -83 8 -196 10 -251 4 -98 10 -306 20 -775 3 -129 7 -255 10 -280 2 -25 6
-83 10 -130 8 -125 15 -210 20 -255 2 -22 7 -71 10 -110 3 -38 8 -95 11 -125
4 -30 8 -75 9 -100 6 -87 15 -195 19 -230 3 -19 7 -78 11 -130 3 -52 8 -111
10 -130 2 -19 7 -78 11 -130 3 -52 8 -117 10 -145 3 -27 7 -234 10 -460 5
-442 5 -447 -46 -472 -14 -6 -39 -14 -55 -17 -159 -30 -228 -32 -305 -8 -115
35 -347 -36 -541 -164 -93 -61 -192 -161 -275 -279 -40 -55 -95 -127 -124
-160 -107 -124 -285 -281 -390 -344 -30 -19 -86 -59 -125 -91 -177 -144 -326
-248 -459 -321 -161 -90 -229 -218 -204 -388 4 -31 10 -95 13 -143 8 -130 33
-189 114 -266 36 -34 69 -65 73 -70 4 -4 37 -37 73 -74 82 -85 184 -144 277
-162 61 -11 98 -16 163 -20 39 -3 108 -9 155 -13 125 -11 503 -10 590 2 74 10
103 10 420 5 91 -2 212 1 270 5 128 11 349 11 410 1 25 -4 56 -9 70 -11 31 -4
342 -17 425 -18 118 0 248 15 410 48 29 6 324 90 415 118 68 21 199 77 255
109 118 68 377 189 463 217 110 36 261 68 352 75 153 12 284 46 395 104 92 48
126 76 190 152 21 25 59 69 86 98 27 30 60 75 73 100 37 73 44 108 61 292 7
72 11 100 19 145 3 17 8 46 11 65 3 19 8 43 11 52 3 9 7 26 9 37 2 11 27 73
56 138 45 100 53 127 53 180 1 73 -19 107 -80 138 -48 24 -138 29 -203 9 -98
-29 -143 -16 -209 59 -82 93 -179 191 -222 222 -124 91 -301 158 -475 179
-114 14 -150 16 -363 21 -233 5 -262 8 -327 29 -153 52 -230 67 -360 70 -88 2
-198 30 -236 59 -24 18 -124 347 -143 472 -4 22 -9 56 -12 75 -3 19 -7 132 -9
250 -3 238 -8 280 -65 490 -42 155 -57 234 -76 380 -9 73 -11 290 -4 365 7 80
-2 130 -49 255 -79 210 -108 440 -87 670 12 134 9 185 -20 262 -44 123 -56
193 -49 288 3 47 8 128 9 180 5 184 62 242 256 265 125 15 188 37 410 142 128
61 250 118 421 196 227 103 367 277 563 700 25 54 46 100 46 102 0 6 91 198
129 275 64 125 83 193 87 310 5 156 11 182 69 335 88 233 88 230 100 475 3 58
7 114 9 125 2 11 7 42 10 68 4 27 9 56 11 65 1 10 6 38 9 65 3 26 9 68 13 95
14 96 5 613 -13 705 -2 11 -6 88 -9 171 -5 156 -6 167 -30 270 -18 78 -24 110
-30 166 -3 25 -7 61 -10 80 -2 19 -6 58 -9 85 -17 164 -21 192 -37 272 -6 29
-10 54 -9 55 0 2 -9 30 -21 63 -16 43 -23 88 -25 160 -6 243 -38 388 -135 619
-59 138 -79 199 -79 238 0 15 -10 58 -22 95 -20 61 -31 77 -114 160 -106 105
-138 162 -149 264 -7 62 -41 175 -84 272 -11 26 -32 86 -46 132 -14 46 -30 87
-35 90 -5 3 -43 56 -86 118 -42 61 -93 129 -113 150 -46 48 -115 71 -176 57
-101 -23 -138 -55 -157 -139 -17 -78 -39 -99 -123 -115 -38 -8 -88 -17 -110
-20 -79 -10 -281 -37 -330 -44 -53 -8 -315 -7 -500 1 -202 10 -232 40 -269
277 -26 163 -27 184 -30 372 -2 170 -5 189 -30 263 -23 67 -26 88 -20 135 16
116 8 602 -12 704 -2 12 -7 54 -10 95 -3 42 -7 82 -9 91 -1 8 -6 44 -9 80 -4
36 -9 81 -11 100 -2 19 -7 60 -10 90 -8 75 -12 103 -35 270 -33 229 -36 310
-15 357 24 56 138 125 178 110 15 -6 48 -70 72 -139 26 -75 76 -130 233 -257
81 -65 246 -200 367 -301 223 -184 389 -313 528 -407 67 -47 157 -144 157
-171 0 -17 96 -105 148 -136 29 -17 61 -36 70 -41 206 -124 583 -325 608 -325
13 0 1 90 -16 117 -23 39 -51 57 -246 160 -248 132 -382 230 -368 269 9 24 34
54 46 54 4 0 171 -108 371 -241 233 -155 377 -257 404 -287 24 -26 43 -50 43
-53 0 -3 -38 -21 -85 -39 -47 -18 -85 -36 -85 -40 0 -16 89 -98 114 -104 17
-4 50 0 84 10 65 20 65 20 114 10 55 -12 54 -30 -3 -65 -27 -17 -49 -34 -48
-38 2 -23 192 -162 286 -209 107 -54 148 -83 158 -115 3 -10 34 -34 68 -53 35
-19 87 -51 116 -71 48 -33 265 -210 316 -258 11 -11 46 -37 77 -58 73 -50 115
-92 206 -205 83 -104 202 -222 432 -429 86 -77 136 -114 305 -222 94 -60 251
-167 350 -239 99 -71 220 -156 268 -189 118 -80 360 -267 397 -305 3 -3 62
-54 132 -113 69 -58 132 -112 140 -119 54 -53 164 -137 274 -211 123 -82 188
-135 445 -363 107 -94 235 -201 324 -269 90 -69 270 -228 409 -360 22 -21 131
-115 226 -195 130 -109 316 -254 450 -350 248 -177 302 -225 714 -636 175
-175 311 -302 386 -359 133 -102 200 -167 415 -410 234 -264 406 -434 560
-555 39 -30 72 -57 75 -60 3 -3 48 -39 100 -80 146 -115 239 -198 465 -415
135 -130 195 -185 305 -279 21 -18 129 -98 216 -162 52 -37 32 -108 -49 -176
-249 -207 -360 -421 -352 -671 2 -51 5 -99 7 -107 3 -8 8 -30 12 -49 15 -64
71 -156 131 -216 85 -85 176 -129 306 -150 21 -3 67 -21 103 -40 93 -50 161
-55 238 -17 31 15 80 47 109 72 28 25 77 59 108 77 l56 32 42 -127 c24 -70 43
-127 44 -127 0 0 2 -7 4 -15 10 -44 68 -189 88 -218 30 -44 95 -86 175 -113
37 -12 103 -38 147 -56 138 -60 163 -66 246 -61 73 4 86 9 270 101 247 122
322 151 357 139 51 -17 65 -52 105 -269 28 -149 103 -218 244 -223 20 0 31
-52 18 -90 -33 -99 19 -197 151 -283 84 -55 81 -119 -6 -132 -19 -2 -60 -8
-90 -13 -88 -12 -355 -2 -383 15 -4 2 -43 6 -87 8 -239 11 -401 -147 -409
-400 -3 -99 -9 -129 -42 -220 -51 -137 -106 -343 -149 -556 -23 -112 -43 -213
-45 -224 -1 -11 -7 -45 -13 -75 -6 -30 -14 -77 -17 -105 -3 -27 -8 -61 -10
-75 -2 -14 -6 -54 -9 -90 -3 -36 -8 -76 -11 -89 -2 -12 -7 -42 -9 -65 -3 -22
-8 -52 -11 -66 -2 -14 -7 -38 -11 -55 -6 -31 -47 -218 -69 -315 -25 -108 -43
-196 -49 -233 -28 -178 -80 -264 -200 -331 -82 -46 -112 -73 -152 -135 -82
-125 -147 -167 -243 -156 -108 12 -133 12 -202 -1 -95 -18 -184 -64 -307 -157
-148 -112 -166 -130 -206 -210 -19 -40 -71 -117 -116 -172 -93 -116 -113 -153
-113 -212 0 -53 16 -95 62 -158 20 -27 53 -84 74 -126 48 -99 102 -158 257
-282 69 -55 144 -119 166 -141 23 -23 50 -46 60 -52 157 -92 318 -151 499
-182 70 -12 979 -8 1006 4 57 26 78 34 159 58 105 31 233 61 325 75 120 19
128 21 220 70 239 128 353 211 415 305 40 60 38 98 -13 177 -71 112 -72 189
-3 359 117 285 193 375 332 395 21 4 64 19 94 34 30 16 96 44 145 62 50 18 92
34 94 36 7 5 -29 52 -49 63 -11 6 -51 12 -90 15 -39 2 -75 7 -80 10 -15 9 -12
91 4 128 7 18 28 45 45 60 38 32 14 42 249 -105 347 -218 366 -239 375 -403 4
-96 24 -143 85 -201 56 -54 63 -58 777 -379 101 -45 152 -64 230 -85 134 -35
211 -39 455 -25 74 4 167 9 205 10 75 3 86 5 275 58 133 38 257 68 355 88 264
53 466 170 710 414 160 159 249 275 322 417 38 73 92 215 100 258 1 9 20 35
41 58 40 43 57 86 67 172 3 25 8 63 11 85 3 22 13 67 24 100 22 70 37 127 45
172 3 18 9 43 14 55 9 24 24 142 24 188 0 43 -14 93 -40 140 -25 46 -29 78
-34 250 -1 68 -10 108 -41 205 -22 66 -42 127 -43 135 -2 8 -13 51 -24 95 -11
44 -23 100 -26 124 -3 23 -7 46 -10 50 -2 4 -7 32 -10 62 -3 30 -7 63 -9 74
-8 40 -16 146 -31 383 -3 56 -26 166 -69 335 -35 139 -66 266 -69 282 -3 17
-10 55 -16 85 -59 328 -177 694 -336 1045 -88 193 -122 293 -150 431 -31 157
-47 202 -96 276 -39 57 -92 106 -164 148 -50 31 -115 98 -115 120 0 9 18 31
40 49 46 37 48 43 19 72 -16 16 -27 19 -52 14 -18 -4 -39 -13 -47 -20 -63 -52
-108 30 -84 153 6 27 13 33 59 46 105 31 130 88 83 194 -43 96 -31 156 66 350
105 210 146 341 148 481 1 84 16 109 104 180 66 53 69 115 6 190 -67 81 -74
121 -57 321 4 52 7 192 6 310 -2 118 -3 288 -4 377 -2 141 0 164 15 179 23 23
64 22 218 -6 69 -12 139 -24 155 -27 17 -3 48 -8 70 -12 90 -17 158 4 257 76
43 31 66 64 59 87 -1 5 -4 46 -5 90 -4 101 -32 167 -80 190 -229 109 -272 118
-531 121 -177 1 -227 5 -255 18 -43 19 -75 49 -94 85 -13 27 -58 161 -72 217
-13 54 -14 60 -19 103 -9 71 -44 163 -88 228 -23 33 -102 146 -176 252 l-135
192 -165 109 c-364 238 -460 278 -646 266 -49 -3 -137 -8 -195 -10 -134 -6
-256 -15 -283 -21 -12 -3 -33 -7 -46 -10 -85 -18 -195 -109 -240 -198 -72
-146 -133 -396 -129 -536 2 -74 -8 -99 -57 -136 l-34 -26 -88 68 c-193 148
-215 166 -265 214 -84 80 -249 155 -315 144 -55 -9 -90 -25 -119 -53 -16 -16
-49 -35 -72 -42 -98 -29 -182 -150 -183 -261 -1 -65 12 -100 57 -155 84 -103
153 -147 389 -248 61 -26 128 -55 150 -65 22 -9 87 -37 145 -60 229 -95 233
-104 160 -304 -27 -74 -32 -188 -14 -292 22 -121 19 -187 -10 -304 -49 -191
-104 -365 -161 -505 -47 -113 -54 -198 -24 -258 23 -44 79 -100 124 -124 43
-22 111 -79 134 -112 27 -37 48 -125 55 -226 9 -140 32 -231 115 -457 31 -85
28 -110 -29 -211 -66 -115 -120 -253 -151 -387 -6 -25 -12 -52 -15 -60 -2 -8
-11 -45 -19 -82 -16 -63 -18 -67 -60 -87 -97 -45 -135 -102 -135 -199 0 -79
-68 -115 -173 -94 -77 16 -232 8 -297 -16 -30 -10 -97 -40 -147 -66 -89 -44
-202 -87 -270 -101 -29 -6 -33 -4 -39 22 -22 101 -34 130 -60 142 -24 11 -105
8 -154 -5 -8 -2 -33 13 -55 34 -22 20 -67 59 -100 87 -33 27 -69 58 -79 67
-51 46 -139 102 -221 141 -49 23 -122 63 -161 89 -73 49 -128 68 -178 61 -35
-5 -78 -26 -95 -46 -10 -13 -19 -8 -59 35 -25 27 -78 68 -116 91 -40 24 -80
57 -95 79 -18 26 -42 43 -81 59 -108 43 -356 169 -384 195 -16 15 -39 51 -52
80 -27 62 -51 80 -119 89 -52 8 -115 32 -115 45 0 6 -118 125 -164 165 -123
108 -167 147 -196 171 -105 89 -144 132 -170 190 -43 94 -98 129 -217 138 -69
5 -123 30 -211 97 -42 32 -90 69 -107 81 -68 52 -129 116 -156 164 -40 70 -68
93 -120 100 -89 12 -159 55 -277 172 -51 50 -54 55 -50 95 3 23 8 49 12 58 6
14 0 17 -34 17 -59 1 -138 27 -190 61 -25 17 -117 103 -205 192 -185 187 -276
262 -435 361 -313 194 -508 351 -850 682 -230 221 -319 296 -470 396 -201 134
-326 249 -463 431 -82 109 -117 138 -179 146 -58 8 -86 23 -203 112 -128 97
-232 189 -427 379 -139 137 -196 187 -293 257 -16 11 -42 30 -58 43 -17 12
-115 104 -217 205 -259 255 -324 313 -523 470 -105 84 -142 121 -216 217 -49
63 -98 124 -108 135 -10 12 -47 54 -83 95 -198 229 -318 339 -620 571 -25 18
-52 39 -60 46 -8 6 -84 67 -169 133 -85 67 -188 155 -230 195 -124 119 -142
133 -246 213 -107 81 -210 180 -315 302 -36 41 -94 106 -130 143 -36 38 -72
81 -80 96 -48 89 -142 182 -247 247 -128 79 -503 314 -578 362 -38 25 -92 60
-120 78 -27 17 -78 55 -113 83 -35 27 -105 76 -155 107 -51 31 -137 85 -192
119 -117 73 -121 75 -285 153 -210 101 -592 373 -760 543 -207 208 -244 254
-320 395 -62 113 -90 147 -185 222 -38 31 -108 95 -155 142 -113 115 -151 133
-290 136 -130 3 -212 18 -246 45 -13 10 -191 58 -237 63 -18 2 -45 1 -62 -3z
m1730 -4236 c96 -24 207 -110 244 -188 70 -148 173 -450 185 -542 10 -77 41
-172 93 -285 91 -198 96 -281 22 -321 -27 -14 -226 -21 -234 -8 -6 8 -26 8
-145 -6 -88 -10 -126 -14 -185 -20 -33 -3 -73 -8 -90 -10 -16 -2 -61 -7 -100
-10 -38 -4 -77 -8 -86 -10 -9 -2 -52 -6 -95 -10 -43 -4 -88 -9 -99 -12 -11 -2
-54 -6 -95 -8 -114 -7 -204 -24 -298 -56 -135 -46 -184 -36 -217 45 -13 32
-19 73 -40 301 -7 74 -15 156 -20 190 -2 17 -7 64 -10 105 -6 74 -11 132 -20
220 -2 25 -9 99 -15 165 -6 66 -13 140 -16 165 -25 198 24 271 176 255 247
-26 446 -34 570 -21 79 8 208 34 232 47 47 25 170 32 243 14z m-2065 -29 c19
-2 107 -7 195 -11 272 -11 330 -27 372 -102 28 -50 40 -101 48 -193 3 -41 8
-86 10 -100 3 -14 7 -56 10 -95 5 -68 12 -159 20 -240 2 -22 7 -78 10 -125 4
-47 8 -98 10 -115 10 -84 20 -251 20 -335 0 -81 -3 -100 -23 -131 -37 -60 -78
-74 -217 -73 -102 0 -234 6 -395 20 -19 1 -69 5 -110 8 -41 3 -113 9 -160 13
-213 17 -362 -1 -545 -68 -69 -25 -157 -30 -200 -11 -46 20 -67 56 -72 126 -7
78 10 138 51 184 90 103 105 162 81 338 -12 92 -8 138 17 177 8 12 15 39 16
59 2 46 25 117 86 266 25 63 51 134 57 160 10 46 19 69 65 168 39 84 83 94
389 88 127 -2 246 -6 265 -8z m2813 -1724 c42 -40 68 -115 83 -237 3 -27 7
-57 9 -65 2 -8 7 -40 10 -70 3 -30 8 -62 10 -70 2 -8 7 -38 10 -66 3 -28 7
-59 9 -70 2 -10 7 -48 11 -84 4 -36 9 -72 10 -80 9 -48 18 -178 18 -260 1
-114 -6 -178 -32 -301 -11 -52 -23 -107 -25 -124 -3 -16 -12 -73 -20 -125 -20
-123 -26 -165 -31 -220 -9 -85 -16 -155 -20 -190 -3 -19 -7 -70 -10 -113 -4
-43 -8 -86 -10 -95 -1 -10 -6 -55 -10 -102 -4 -47 -8 -87 -10 -90 -1 -3 -6
-36 -10 -73 -3 -37 -8 -76 -10 -85 -1 -9 -6 -37 -10 -62 -3 -25 -9 -58 -11
-75 -20 -129 -64 -307 -109 -440 -35 -105 -71 -231 -79 -276 -2 -15 -16 -71
-31 -125 -65 -242 -164 -357 -440 -511 -147 -82 -215 -114 -315 -148 -52 -18
-133 -47 -180 -63 -172 -62 -197 -66 -440 -67 -124 -1 -261 -5 -305 -9 -44 -3
-114 -9 -155 -13 -120 -10 -162 -10 -210 -1 -25 5 -58 11 -74 14 -34 6 -177
51 -221 69 -316 132 -489 259 -757 557 -51 56 -100 99 -147 127 -157 95 -220
205 -256 448 -20 140 -56 245 -135 403 -122 243 -154 388 -154 700 0 151 11
558 18 655 2 22 6 85 10 140 4 55 9 107 11 115 2 8 7 51 10 95 4 44 8 82 10
85 2 3 6 39 10 80 4 41 8 77 10 80 1 3 6 36 10 73 3 37 8 76 10 85 1 9 6 39 9
66 15 106 75 247 120 279 33 23 45 24 231 14 50 -2 119 0 155 4 120 17 145 20
210 30 58 9 328 12 485 4 33 -1 125 -5 205 -9 255 -12 367 -22 406 -36 33 -13
59 -59 83 -149 28 -105 35 -167 35 -311 0 -113 -12 -308 -19 -320 -4 -7 -18
-125 -19 -170 -7 -139 83 -298 204 -364 75 -41 140 -55 249 -54 196 1 274 57
358 258 47 111 52 136 39 200 -3 20 -34 90 -39 90 -11 0 -136 -44 -162 -57
-40 -21 -99 -67 -159 -126 -58 -55 -110 -74 -160 -57 -47 15 -70 44 -70 88 0
37 12 111 20 124 6 9 6 198 0 227 -19 90 -26 308 -14 416 3 28 14 80 23 117
35 135 113 177 440 234 42 7 111 28 173 53 50 20 77 22 390 26 388 6 435 9
557 34 105 21 155 14 198 -27z m14454 -641 c130 -51 210 -129 284 -276 28 -55
73 -137 101 -182 52 -88 65 -130 54 -187 -6 -29 -10 -34 -29 -31 -12 2 -49 6
-82 10 -32 4 -62 8 -65 10 -4 2 -17 6 -31 9 -235 50 -271 54 -452 57 -99 1
-185 15 -304 48 -50 14 -78 40 -94 88 -10 31 -9 37 11 58 12 13 34 26 48 30
59 14 82 29 83 55 3 176 12 212 61 257 29 28 111 64 158 70 19 3 37 7 39 9 12
12 172 -6 218 -25z m-547 -1006 c14 -3 43 -11 66 -15 22 -5 90 -24 150 -44
198 -63 231 -71 384 -91 24 -3 109 -17 120 -20 3 0 14 -5 25 -11 73 -39 205
-74 336 -90 129 -16 148 -36 163 -174 3 -25 7 -55 10 -67 2 -11 8 -43 12 -70
3 -26 9 -57 11 -68 39 -179 57 -418 38 -505 -3 -14 -8 -45 -11 -69 -20 -145
-104 -448 -189 -680 -23 -64 -55 -168 -70 -231 -35 -144 -65 -208 -127 -266
-115 -108 -240 -127 -423 -65 -336 112 -611 257 -673 355 -27 43 -66 163 -77
237 -3 24 -15 81 -26 125 -33 140 -25 184 47 284 20 28 25 43 21 73 -6 43 -19
62 -58 83 -30 15 -59 22 -100 23 -43 1 -71 31 -72 76 0 51 28 196 53 275 25
78 38 126 45 170 3 19 10 51 15 70 23 92 47 291 55 465 6 133 14 204 26 227 8
14 24 16 116 14 60 -2 119 -7 133 -11z m-4321 -2768 c9 -12 8 -15 -6 -19 -56
-14 -123 41 -93 77 11 13 17 11 50 -15 20 -16 42 -36 49 -43z m4568 -220 c22
-12 22 -13 4 -43 -24 -39 -69 -57 -102 -40 -31 15 -38 62 -12 82 22 17 81 17
110 1z m-4726 -59 c1 -18 2 -44 4 -58 1 -14 5 -59 8 -101 5 -57 14 -91 37
-133 25 -49 29 -65 25 -119 -2 -34 -16 -98 -32 -142 -24 -70 -32 -82 -63 -96
-91 -43 -170 35 -255 251 -31 81 -57 129 -85 160 -85 96 -73 177 33 232 61 31
89 36 215 37 l112 1 1 -32z m814 -191 c46 -31 195 -166 195 -175 -1 -4 -25
-22 -54 -40 -69 -44 -106 -101 -106 -163 0 -66 28 -101 153 -190 131 -92 148
-108 203 -182 72 -97 68 -150 -18 -220 -81 -64 -135 -68 -283 -18 -179 60
-190 68 -225 180 -29 95 -37 154 -33 251 2 47 5 180 7 295 3 227 9 269 34 285
26 16 86 5 127 -23z m3450 -161 c48 -6 239 -53 278 -68 20 -8 26 -15 21 -27
-24 -57 -134 -394 -194 -596 -40 -132 -90 -294 -112 -360 -55 -168 -66 -221
-63 -311 3 -100 -10 -129 -66 -144 -60 -17 -177 -11 -220 11 -71 36 -73 83
-15 364 20 94 38 182 41 198 3 15 12 58 19 95 8 37 17 83 20 102 3 19 14 70
26 113 51 195 61 234 65 257 10 55 17 131 19 221 1 61 7 102 17 117 15 25 59
41 99 36 14 -2 43 -5 65 -8z m1371 -305 c30 -116 34 -266 10 -398 -2 -10 -7
-49 -11 -88 -6 -66 -9 -87 -19 -167 -22 -163 -24 -218 -15 -538 5 -224 -11
-345 -81 -615 -35 -134 -86 -340 -95 -384 -8 -39 -70 -221 -91 -268 -13 -28
-24 -54 -24 -57 0 -3 -21 -49 -46 -103 -91 -192 -91 -206 20 -315 16 -15 33
-28 38 -28 27 0 126 163 273 450 72 140 155 420 178 601 2 19 19 66 36 102 61
128 76 205 86 457 6 150 10 217 30 525 3 44 7 106 9 139 5 81 21 88 63 26 40
-60 52 -105 103 -382 42 -229 48 -250 115 -423 42 -107 173 -489 180 -523 7
-36 47 -179 63 -227 10 -28 44 -96 75 -152 38 -67 86 -176 137 -315 43 -117
86 -231 95 -253 44 -102 59 -189 70 -400 7 -132 10 -171 21 -260 17 -139 7
-260 -31 -404 -52 -192 -88 -219 -255 -198 -30 4 -73 12 -95 18 -22 6 -48 13
-59 15 -10 2 -58 14 -105 28 -89 25 -128 33 -196 42 -90 13 -221 46 -271 70
-59 28 -130 78 -196 140 -24 21 -99 89 -168 149 -69 61 -132 117 -140 126 -59
62 -206 167 -280 201 -146 67 -210 102 -203 109 5 3 55 19 113 35 89 24 111
34 140 64 33 33 60 94 60 132 0 45 -90 103 -172 111 -97 10 -172 67 -338 256
-36 41 -76 86 -90 101 -14 15 -59 65 -100 111 -124 139 -196 205 -256 233 -70
33 -158 38 -224 12 -19 -7 -238 150 -331 237 -70 66 -145 109 -275 156 -57 20
-106 48 -165 93 -46 35 -100 69 -119 76 -75 28 -105 50 -134 99 -34 59 -51 71
-130 90 -34 8 -86 26 -116 41 -64 31 -156 121 -190 185 -21 40 -28 45 -48 40
-44 -11 -99 -8 -116 6 -10 8 -24 31 -32 50 -15 36 -15 36 18 61 110 84 179
169 204 256 19 67 20 168 1 231 l-15 50 77 -32 c191 -81 260 -130 329 -235 56
-84 31 -61 432 -400 80 -68 164 -143 187 -166 46 -47 163 -144 174 -144 4 0
33 -16 65 -35 70 -43 126 -47 170 -13 16 12 31 25 34 29 3 3 18 13 33 21 25
13 40 13 115 1 112 -17 192 -19 220 -4 25 13 59 74 67 121 22 123 58 285 81
358 15 48 29 92 30 97 1 6 21 64 44 130 46 129 60 179 121 409 63 239 116 323
234 374 148 64 430 229 525 307 l55 45 38 -98 c21 -53 49 -139 63 -191z
m-4139 27 c42 -40 91 -89 189 -193 l37 -40 -29 -6 c-62 -14 -73 -9 -176 73
-57 45 -120 98 -141 117 l-37 35 27 28 c39 41 73 37 130 -14z m2047 -273 c-2
-142 -9 -209 -30 -314 -15 -72 -48 -168 -63 -184 -13 -14 -130 53 -166 96 -20
23 -42 62 -49 87 -19 64 -14 195 9 245 22 49 83 108 139 137 34 18 138 56 157
57 3 1 4 -55 3 -124z m-1108 -168 c11 -6 4 -72 -8 -81 -1 -2 -17 18 -35 44
l-31 48 31 -2 c18 -1 37 -5 43 -9z m1081 -1928 c24 -11 71 -46 105 -77 35 -32
91 -79 125 -105 81 -64 115 -114 121 -178 l5 -50 -29 6 c-196 44 -387 208
-438 377 -7 26 -11 50 -8 53 10 10 75 -5 119 -26z m-1644 -21 c23 -18 47 -37
53 -43 6 -5 62 -48 124 -95 61 -47 180 -138 263 -203 148 -115 390 -298 434
-327 39 -27 203 -144 301 -216 53 -39 117 -93 141 -120 157 -176 161 -177 371
-177 86 0 173 3 193 7 36 7 37 9 37 48 0 107 -58 249 -136 335 l-44 47 -31
-32 c-29 -29 -81 -52 -121 -52 -13 0 -116 70 -154 105 -6 5 -33 28 -60 50 -27
22 -71 60 -99 85 -171 155 -206 192 -231 249 -18 38 -52 80 -119 145 l-95 91
48 33 c116 79 162 65 326 -93 22 -22 79 -74 126 -115 47 -41 87 -77 90 -80 3
-3 32 -28 65 -55 33 -28 65 -55 70 -61 6 -6 35 -30 65 -55 30 -24 71 -59 90
-77 53 -50 110 -80 165 -87 199 -25 476 -157 627 -299 94 -88 184 -157 388
-294 293 -198 396 -278 524 -407 140 -140 172 -160 463 -276 209 -84 201 -81
458 -170 110 -38 207 -72 215 -76 8 -3 20 -7 25 -9 6 -1 23 -7 38 -13 25 -10
28 -15 24 -44 -6 -43 -38 -105 -105 -200 -203 -290 -468 -415 -912 -432 -376
-14 -426 -14 -460 -4 -66 20 -856 419 -930 470 -41 27 -103 69 -137 92 -37 25
-77 64 -100 97 -75 108 -139 162 -243 204 -52 22 -108 49 -125 60 -28 19 -183
144 -195 156 -14 14 -264 212 -325 256 -118 86 -148 98 -245 98 -101 -1 -156
-22 -224 -85 -40 -36 -152 -202 -171 -252 -5 -10 4 -40 21 -75 45 -90 40 -144
-31 -317 -32 -77 -81 -185 -110 -240 -77 -146 -193 -340 -202 -338 -4 1 -57
30 -118 65 -308 179 -367 206 -527 233 -150 26 -164 42 -133 149 9 33 21 98
25 143 12 122 59 197 170 272 135 92 180 205 143 360 -7 31 -13 71 -13 89 0
40 29 98 65 132 42 39 66 85 69 134 4 52 3 52 -68 31 -27 -8 -54 -15 -61 -15
-19 0 -17 82 5 193 11 56 22 113 24 127 2 14 14 75 26 135 12 61 24 121 26
135 3 14 7 32 10 40 3 8 10 71 14 140 10 142 29 207 106 363 27 53 50 97 52
97 2 0 22 -15 45 -32z m-11963 -1444 c121 -29 212 -50 255 -58 17 -4 41 -9 55
-12 57 -11 199 -33 250 -38 30 -3 84 -8 120 -11 80 -7 183 -37 232 -67 38 -24
77 -59 168 -153 30 -31 92 -86 138 -123 45 -36 82 -69 82 -74 0 -17 -67 -114
-117 -168 -64 -69 -154 -123 -263 -157 -46 -14 -91 -29 -100 -34 -124 -69
-321 -134 -529 -175 -58 -12 -149 -37 -331 -94 -241 -74 -369 -106 -502 -125
-96 -13 -160 -18 -378 -30 -47 -3 -123 -7 -170 -11 -219 -14 -618 -19 -740
-10 -95 7 -194 17 -210 21 -8 2 -33 7 -55 10 -88 12 -137 26 -340 93 -144 48
-185 73 -185 116 0 32 23 62 126 163 126 123 199 173 323 220 70 26 170 74
202 96 11 8 39 32 62 54 106 98 215 128 344 94 45 -12 60 -10 93 11 14 9 50
24 80 33 104 30 143 55 170 110 35 69 71 86 167 80 43 -3 83 -11 97 -20 24
-16 56 -80 56 -113 0 -33 47 -118 81 -146 45 -38 81 -53 192 -76 50 -10 117
-25 147 -33 65 -17 86 -11 146 38 50 42 86 96 87 133 1 15 -12 59 -27 97 -27
65 -29 80 -30 211 -1 125 1 144 18 162 31 36 94 32 286 -14z m11264 -1334
c223 -47 461 -179 608 -338 61 -66 77 -107 58 -151 -33 -80 -199 -97 -955 -95
-510 1 -789 10 -910 28 -23 4 -31 17 -33 55 -4 55 30 89 145 146 175 86 320
124 548 140 100 7 167 26 225 63 44 28 56 41 103 112 24 37 59 60 93 60 11 0
64 -9 118 -20z"/>
<path d="M11004 27462 c-92 -67 -140 -143 -174 -276 -43 -171 -43 -306 1 -432
41 -118 47 -141 53 -205 10 -99 59 -190 155 -288 78 -80 157 -114 258 -113 99
0 158 30 266 133 71 66 72 67 103 54 17 -7 60 -36 95 -65 108 -87 172 -113
676 -274 77 -25 154 -48 170 -51 37 -7 160 -7 198 0 176 34 285 100 350 212
89 150 83 292 -18 447 -99 150 -184 221 -333 280 -165 65 -508 188 -579 208
-169 47 -343 19 -470 -77 -16 -12 -41 -26 -55 -30 -42 -14 -131 -6 -176 15
-52 26 -86 66 -169 204 -141 233 -178 273 -262 282 -42 5 -53 2 -89 -24z m279
-666 c53 -19 77 -44 77 -78 0 -28 -41 -121 -59 -132 -5 -3 -29 10 -55 30 -62
47 -72 87 -41 162 15 36 23 37 78 18z m1132 -161 c52 -63 128 -197 116 -204
-12 -8 -98 -7 -121 1 -8 3 -96 31 -194 63 -148 48 -184 63 -208 88 l-28 31 21
22 c12 12 33 27 47 33 28 12 189 58 232 67 13 3 27 7 30 10 5 5 44 -36 105
-111z"/>
<path d="M27256 20292 c-3 -5 0 -26 6 -48 5 -21 10 -41 11 -44 0 -15 39 -115
48 -126 6 -8 25 -14 40 -14 32 0 49 27 49 76 0 71 -127 199 -154 156z"/>
<path d="M29214 29688 c-103 -121 -126 -155 -134 -191 -10 -48 6 -72 74 -106
43 -21 94 -63 176 -144 86 -85 124 -115 148 -120 91 -18 162 44 162 140 0 104
-70 268 -147 347 -43 44 -187 156 -201 156 -4 0 -40 -37 -78 -82z"/>
<path d="M30380 24738 c-88 -33 -115 -150 -47 -205 40 -33 76 -84 87 -122 5
-21 12 -87 14 -147 7 -182 60 -304 191 -440 55 -56 80 -75 115 -84 52 -14 126
-8 168 14 41 21 75 93 67 143 -6 41 -82 217 -141 329 -55 105 -243 418 -267
446 -50 56 -134 86 -187 66z"/>
<path d="M28787 17744 c-1 -1 -83 -5 -182 -9 -215 -7 -242 -10 -272 -30 -50
-33 -64 -105 -26 -133 10 -7 50 -23 88 -35 171 -53 394 -6 462 97 21 33 39
105 26 107 -15 2 -94 4 -96 3z"/>
<path d="M9315 17628 c-40 -22 -75 -62 -81 -95 -13 -71 16 -113 135 -197 65
-45 85 -66 115 -120 42 -76 120 -149 203 -191 32 -16 94 -53 138 -82 74 -48
307 -149 323 -139 4 2 30 7 57 10 96 13 149 37 165 77 27 64 -27 143 -153 226
-51 33 -139 91 -197 129 -139 90 -258 150 -337 168 -72 16 -104 40 -156 116
-37 54 -52 69 -86 92 -29 20 -96 23 -126 6z"/>
<path d="M27778 16835 c-2 -2 -30 -6 -63 -10 -55 -6 -184 -44 -430 -127 -143
-49 -234 -97 -291 -153 -47 -47 -55 -61 -89 -167 -34 -107 -41 -120 -96 -178
-32 -35 -80 -97 -104 -139 -25 -42 -86 -137 -135 -211 -93 -140 -120 -185
-227 -375 -35 -63 -133 -262 -133 -272 0 -3 -6 -19 -14 -36 -31 -69 -70 -219
-80 -307 -3 -25 -12 -88 -20 -140 -8 -52 -18 -113 -21 -135 -28 -190 -36 -242
-40 -255 -2 -8 -6 -37 -10 -65 -8 -66 -14 -108 -25 -175 -15 -90 -20 -132 -26
-185 -2 -27 -6 -66 -9 -85 -2 -19 -7 -60 -10 -90 -3 -30 -13 -107 -22 -170
-20 -151 -20 -145 -32 -220 -6 -36 -13 -81 -15 -100 -3 -19 -7 -46 -10 -60 -2
-14 -7 -52 -11 -85 -4 -32 -8 -66 -10 -75 -12 -65 -23 -201 -30 -385 -5 -132
-10 -163 -39 -260 -39 -127 -45 -150 -52 -209 -2 -24 -6 -52 -8 -62 -2 -11 -7
-50 -12 -89 -4 -38 -8 -72 -9 -75 -1 -3 -5 -39 -9 -80 -5 -41 -10 -83 -11 -92
-2 -9 -7 -48 -10 -85 -4 -37 -9 -81 -11 -98 -20 -169 -22 -317 -5 -382 16 -60
24 -141 24 -238 0 -115 -25 -185 -89 -248 -53 -53 -274 -208 -441 -310 -65
-39 -147 -93 -182 -119 -159 -120 -246 -131 -476 -60 -183 56 -271 99 -335
165 -27 28 -50 55 -50 59 0 3 -6 13 -14 21 -8 8 -37 53 -64 100 -41 71 -48 92
-43 118 5 26 14 34 51 46 94 32 153 87 225 208 29 50 67 105 83 122 16 18 42
48 58 65 44 49 115 145 161 218 75 120 113 185 113 194 0 5 6 17 14 25 23 26
114 213 120 246 3 17 9 50 12 75 3 25 12 77 21 115 30 141 31 150 40 220 5 33
8 112 7 175 -1 125 -9 165 -86 403 l-42 128 -40 -8 c-82 -16 -121 -10 -173 27
-26 19 -50 36 -53 40 -3 3 -29 18 -57 33 -150 80 -376 125 -613 123 -132 -1
-158 -16 -202 -115 -17 -36 -41 -81 -55 -99 -13 -17 -72 -114 -130 -215 -82
-142 -106 -192 -109 -227 -5 -66 -14 -99 -39 -144 -35 -65 -83 -200 -101 -291
-26 -127 -25 -628 2 -835 14 -108 58 -267 96 -345 42 -87 22 -141 -86 -231
-184 -155 -359 -229 -509 -218 -71 6 -114 24 -247 107 -202 126 -260 185 -275
277 -4 25 -9 54 -11 65 -3 11 -7 43 -10 70 -3 28 -8 53 -10 57 -6 9 -6 206 0
243 2 17 14 75 26 130 42 197 53 281 65 515 6 106 14 222 20 260 7 49 17 115
21 145 3 17 20 91 39 165 41 164 73 308 81 369 3 26 8 48 9 51 2 3 11 46 19
95 9 50 18 99 20 110 2 11 11 61 21 110 9 50 37 149 61 220 68 197 77 239 79
365 2 69 9 139 19 175 9 33 19 71 22 85 3 14 9 39 14 55 6 17 30 102 55 190
24 88 67 217 94 287 27 69 67 188 89 265 37 125 149 526 157 563 2 8 10 40 18
70 28 106 -3 195 -83 240 -42 23 -55 24 -180 24 -167 0 -282 -9 -312 -25 -48
-25 -188 -191 -229 -272 -11 -21 -37 -111 -59 -202 -47 -192 -85 -302 -137
-392 -21 -36 -46 -79 -55 -97 -30 -55 -315 -992 -334 -1096 -2 -14 -9 -45 -14
-70 -17 -79 -21 -121 -26 -280 -3 -112 -9 -165 -21 -193 -9 -21 -19 -36 -22
-34 -3 1 -44 21 -91 44 -388 186 -432 202 -579 201 -94 0 -118 -4 -208 -33
-105 -35 -167 -63 -215 -97 -25 -17 -170 -199 -388 -488 -52 -68 -100 -131
-107 -140 -134 -173 -201 -262 -223 -299 -39 -64 -138 -316 -223 -566 -66
-195 -71 -216 -71 -295 0 -47 3 -98 7 -115 12 -51 9 -137 -8 -210 -27 -116
-21 -239 20 -410 14 -59 68 -204 91 -244 70 -119 169 -222 341 -353 84 -64
107 -76 221 -114 70 -24 170 -59 222 -80 86 -33 102 -36 165 -31 126 9 348 94
451 174 27 20 96 73 154 115 58 43 110 82 115 86 6 5 15 11 20 13 6 2 28 15
50 29 44 28 61 32 92 25 31 -7 45 -39 48 -106 3 -62 25 -110 61 -129 18 -10
27 -9 53 11 26 19 71 93 71 117 0 5 12 37 26 73 33 80 29 152 -12 253 l-28 70
39 33 c54 47 81 42 121 -22 18 -27 47 -74 66 -103 41 -65 88 -110 155 -148 28
-16 119 -83 203 -149 261 -207 317 -238 434 -238 44 0 78 7 121 26 33 14 80
28 105 32 85 13 234 56 306 89 86 40 127 69 209 147 33 31 70 59 82 62 27 6
63 -18 103 -68 78 -99 193 -201 305 -272 71 -45 242 -125 295 -138 118 -30
219 -62 280 -91 85 -39 75 -40 257 5 65 16 159 37 208 46 180 35 268 75 377
172 35 32 111 92 168 133 57 41 143 107 192 147 113 92 189 136 221 128 27 -7
52 -47 152 -240 117 -226 192 -343 264 -412 95 -90 310 -201 422 -218 24 -4
46 -8 49 -10 20 -12 336 -22 410 -13 134 18 539 141 688 210 66 31 107 37 134
22 9 -5 51 -52 93 -104 120 -149 140 -161 280 -169 144 -7 371 -6 432 3 67 9
107 23 224 79 52 24 122 57 156 72 70 32 127 86 169 161 16 28 46 71 66 95 21
24 65 78 99 119 33 41 69 84 78 95 128 155 183 243 355 579 202 394 303 560
332 549 14 -5 16 -18 10 -87 -3 -45 -8 -92 -10 -106 -3 -14 -7 -43 -11 -65 -3
-22 -11 -71 -16 -110 -6 -38 -12 -79 -14 -90 -5 -31 -15 -97 -21 -135 -3 -19
-16 -64 -29 -100 -23 -67 -69 -262 -79 -335 -3 -22 -7 -58 -10 -80 -16 -120
-30 -305 -30 -385 1 -117 50 -171 175 -195 43 -8 107 -30 150 -52 67 -34 81
-38 154 -37 65 0 91 5 137 26 32 15 70 29 86 31 72 12 98 54 107 177 5 79 9
127 20 240 11 111 17 167 20 190 2 14 7 54 10 90 8 70 8 71 25 145 12 54 15
79 24 195 4 41 8 91 11 110 2 19 7 67 10 105 8 102 15 183 20 240 7 68 14 148
20 220 3 33 8 80 10 105 3 25 7 74 10 110 3 36 8 81 10 100 3 19 7 62 10 95 8
97 15 136 35 205 10 36 26 90 35 120 21 75 49 118 82 126 40 10 100 50 114 76
6 12 13 46 14 76 3 54 4 56 71 119 175 162 363 216 510 147 l35 -17 -6 -136
c-11 -280 -25 -350 -102 -506 -54 -110 -135 -315 -148 -375 -1 -8 -9 -35 -16
-60 -7 -25 -13 -50 -15 -56 -4 -20 -34 -180 -49 -259 -8 -44 -16 -89 -18 -100
-3 -11 -10 -60 -16 -110 -7 -49 -19 -126 -28 -170 -23 -115 -20 -290 6 -388
24 -90 116 -326 174 -447 43 -87 101 -167 172 -233 60 -57 226 -165 280 -183
63 -22 144 -14 221 21 32 15 59 26 59 24 0 -2 14 4 30 13 17 9 55 26 85 38
117 47 219 103 305 168 105 80 243 212 274 262 41 69 18 193 -46 238 -51 36
-141 47 -226 26 -52 -12 -84 -28 -212 -99 -124 -70 -279 -145 -285 -138 -32
37 -41 305 -14 395 3 10 7 30 10 45 24 136 107 404 211 681 52 139 159 485
178 576 3 10 14 55 25 98 11 44 18 90 14 102 -18 60 -207 533 -243 608 -115
243 -223 344 -439 412 -107 34 -162 41 -302 41 -153 0 -230 -13 -383 -65 -74
-26 -91 -25 -168 7 -53 22 -79 27 -154 27 -74 0 -205 -8 -270 -18 -7 -1 -29
-16 -48 -33 -19 -17 -52 -36 -72 -43 -35 -12 -58 -11 -164 6 -51 8 -92 -10
-130 -58 -25 -31 -65 -151 -76 -229 -3 -24 -8 -51 -10 -59 -2 -8 -7 -35 -10
-60 -5 -42 -20 -127 -29 -176 -15 -75 -148 -412 -214 -539 -49 -95 -112 -190
-167 -252 -40 -45 -103 -160 -177 -322 -11 -25 -76 -158 -143 -296 -133 -271
-127 -261 -445 -666 -213 -272 -237 -292 -355 -314 -16 -2 -43 -7 -60 -10 -16
-3 -55 -10 -85 -16 -115 -21 -194 -22 -228 -5 -86 45 -85 173 2 240 119 90
271 245 334 339 27 40 70 113 97 162 26 50 70 128 98 175 76 129 124 244 143
340 37 184 42 239 28 292 -8 29 -16 67 -19 83 -27 150 -33 220 -40 470 -11
318 -23 433 -70 630 -44 186 -94 320 -138 367 -60 64 -137 79 -294 54 -148
-23 -200 -40 -269 -84 -32 -21 -93 -52 -135 -71 -131 -56 -162 -91 -271 -301
-65 -126 -113 -234 -144 -325 -9 -28 -40 -97 -70 -155 -71 -142 -74 -153 -89
-441 -4 -64 -8 -130 -10 -145 -16 -124 -24 -729 -11 -844 2 -19 18 -87 36
-150 17 -63 35 -131 40 -150 4 -19 15 -62 24 -94 9 -32 15 -59 14 -60 -9 -5
-174 -68 -233 -89 -78 -29 -165 -54 -210 -61 -249 -41 -284 -44 -358 -32 -65
10 -107 53 -192 196 -37 63 -71 117 -74 120 -4 3 -23 28 -43 56 -80 110 -103
215 -67 309 l19 50 -23 17 c-12 10 -30 20 -39 24 -24 7 -23 45 1 93 11 21 62
88 113 149 113 135 120 145 191 252 31 47 105 154 164 238 102 143 234 352
253 397 53 129 131 272 262 478 90 141 180 330 303 632 119 292 136 340 231
670 41 143 91 299 110 347 38 96 41 117 49 328 6 151 9 179 27 245 5 22 12 51
15 65 2 14 8 41 13 60 4 19 11 76 14 125 4 50 9 122 11 160 3 39 10 95 15 125
5 30 12 75 15 100 3 25 7 60 9 78 16 118 21 267 20 552 -1 320 -6 415 -24 475
-5 17 -12 46 -15 65 -28 167 -105 339 -190 424 -31 31 -109 48 -237 51 -53 1
-99 1 -100 0z m-192 -848 c17 -21 43 -66 56 -100 21 -57 23 -76 22 -242 -1
-205 -12 -563 -20 -645 -19 -207 -34 -261 -196 -720 -44 -124 -96 -277 -114
-339 -29 -98 -130 -533 -149 -640 -3 -19 -7 -37 -9 -40 -2 -3 -7 -22 -10 -41
-3 -19 -12 -64 -20 -100 -8 -36 -17 -76 -20 -90 -14 -77 -81 -315 -106 -375
-28 -71 -189 -406 -283 -590 -112 -221 -223 -374 -353 -483 l-39 -34 -14 44
c-7 24 -13 77 -14 118 0 152 24 494 49 675 6 44 41 238 49 270 6 26 44 203 49
230 12 60 49 263 51 280 2 11 15 88 29 170 54 318 121 606 216 930 22 77 43
147 45 155 7 28 87 275 111 343 28 81 85 218 125 305 16 35 29 65 29 67 0 3
131 302 180 410 10 22 48 108 85 190 89 199 105 232 150 294 l38 53 15 -28 c8
-16 30 -46 48 -67z m-6396 -3257 c58 -11 116 -22 129 -25 130 -24 131 -24 131
-58 0 -18 5 -48 10 -67 31 -105 30 -232 -5 -510 -2 -19 -7 -60 -10 -90 -7 -70
-21 -170 -30 -220 -3 -14 -7 -41 -10 -60 -3 -19 -12 -71 -20 -115 -15 -89 -23
-135 -30 -180 -3 -16 -7 -41 -10 -55 -3 -14 -8 -38 -11 -55 -23 -135 -78 -313
-126 -410 -44 -90 -94 -119 -348 -196 -136 -42 -271 -47 -335 -12 -52 27 -101
74 -151 143 l-39 55 0 135 c1 134 12 359 20 383 2 7 6 37 10 67 12 114 52 252
107 370 51 109 73 161 109 260 22 57 66 152 99 210 32 58 77 144 100 193 28
59 54 97 78 117 85 68 188 138 207 139 11 1 67 -8 125 -19z m3168 -83 c20 -16
33 -55 37 -112 4 -52 -28 -177 -95 -370 -17 -50 -32 -97 -34 -106 -11 -44 -77
-189 -134 -294 -101 -185 -146 -255 -164 -255 -11 0 -9 640 3 745 6 61 11 73
39 98 30 26 38 29 84 24 28 -3 62 -9 76 -12 24 -6 25 -5 26 42 1 84 13 192 24
214 6 11 25 28 42 39 32 19 63 15 96 -13z m4350 -134 c12 -27 24 -64 26 -83 3
-19 8 -52 11 -73 4 -21 8 -172 10 -335 1 -163 5 -308 8 -322 3 -14 8 -52 12
-85 12 -108 18 -148 31 -205 21 -88 10 -238 -24 -345 -22 -69 -133 -255 -171
-285 -4 -3 -28 -34 -53 -70 -26 -36 -70 -90 -97 -120 -47 -51 -51 -53 -52 -30
-5 185 3 623 16 855 2 33 7 132 10 220 4 88 8 194 10 235 3 83 19 152 42 189
11 17 16 51 17 111 1 86 2 89 64 211 34 68 64 135 66 149 3 14 5 26 5 28 1 1
11 2 24 2 18 0 28 -11 45 -47z"/>
<path d="M14497 14913 c-4 -3 -91 -12 -177 -18 -148 -11 -184 -21 -234 -68
-84 -79 -119 -183 -80 -242 27 -42 99 -60 159 -40 49 17 75 19 179 12 97 -7
125 5 166 70 38 59 59 123 65 198 7 82 2 94 -41 92 -20 -1 -36 -3 -37 -4z"/>
<path d="M15984 14811 c-22 -10 -50 -30 -61 -45 -31 -39 -82 -166 -108 -271
-37 -146 -48 -431 -20 -523 l16 -53 34 48 c175 248 362 530 372 560 6 21 12
71 12 112 1 62 -3 81 -24 116 -41 71 -136 95 -221 56z"/>
<path d="M9004 14106 c-184 -78 -211 -107 -179 -192 24 -64 111 -148 177 -170
53 -17 149 -22 203 -10 17 4 39 9 50 10 44 8 274 58 330 73 33 8 68 17 78 19
79 15 134 43 147 73 21 52 -14 100 -96 130 -63 23 -110 18 -198 -21 -108 -47
-176 -37 -248 38 -21 21 -38 42 -38 46 0 15 -65 48 -95 48 -16 0 -76 -20 -131
-44z"/>
<path d="M31885 13869 c-38 -11 -93 -63 -101 -96 -15 -60 3 -113 82 -244 l34
-56 54 15 c30 8 65 12 79 8 14 -3 49 -31 79 -62 56 -59 100 -87 157 -99 79
-17 169 1 232 46 70 50 95 176 50 255 -32 56 -61 74 -128 78 -60 3 -140 35
-243 96 -103 61 -214 83 -295 59z"/>
<path d="M18095 13241 c-234 -70 -455 -176 -606 -291 -125 -94 -185 -130 -218
-130 -28 0 -65 42 -107 123 -48 92 -84 130 -146 157 -59 26 -140 24 -193 -4
-40 -21 -282 -252 -300 -285 -11 -22 -34 -100 -50 -171 -2 -8 -18 -71 -35
-140 -43 -173 -66 -282 -95 -445 -32 -178 -32 -178 -80 -395 -2 -8 -18 -57
-35 -109 -41 -122 -40 -117 -42 -246 0 -63 -11 -170 -24 -250 -13 -77 -26
-162 -29 -190 -3 -27 -9 -68 -12 -90 -10 -65 -5 -163 11 -213 23 -70 27 -99
25 -182 -7 -245 -6 -251 29 -322 37 -76 129 -168 208 -208 61 -31 160 -34 212
-6 48 25 96 77 122 133 25 52 27 83 18 259 -7 118 7 217 50 355 17 53 33 109
35 125 3 16 15 74 26 129 11 55 23 116 26 135 3 19 14 80 25 135 10 55 21 116
24 135 3 19 8 45 10 56 2 12 7 39 10 60 4 22 8 46 11 54 2 8 7 33 10 55 4 22
8 45 9 50 2 6 6 33 11 60 17 111 45 226 64 262 21 41 74 95 131 134 53 36 66
55 121 168 148 311 355 507 603 571 70 18 189 21 229 5 22 -9 18 -47 -14 -133
-87 -231 -161 -479 -184 -609 -9 -55 -16 -97 -21 -128 -5 -32 -22 -127 -28
-160 -2 -11 -7 -45 -12 -75 -4 -30 -8 -57 -9 -60 -5 -23 -21 -181 -30 -290 -3
-47 -8 -103 -10 -125 -2 -22 -7 -85 -10 -140 -3 -55 -8 -122 -10 -150 -2 -27
-7 -97 -10 -155 -3 -58 -8 -127 -10 -155 -7 -85 -7 -268 0 -310 8 -53 31 -144
57 -230 12 -38 22 -75 24 -81 7 -37 38 -133 51 -159 64 -122 261 -241 468
-280 56 -10 180 -6 228 9 69 21 90 37 158 124 34 42 87 104 118 137 115 121
155 208 155 335 -1 75 -6 121 -19 151 -8 22 -97 67 -145 75 -41 7 -89 -16
-190 -90 -25 -18 -80 -51 -122 -74 l-76 -42 -31 37 c-60 72 -62 112 -36 483 3
36 7 103 10 150 3 47 8 110 10 140 2 30 7 96 10 145 3 50 8 106 11 125 8 60
61 220 120 360 48 116 126 330 123 338 -1 2 7 50 16 102 1 8 6 40 10 70 11 88
29 192 63 365 3 17 6 80 5 140 0 90 -5 127 -28 200 -29 97 -91 229 -132 285
-68 90 -171 161 -282 194 -72 21 -199 19 -276 -3z"/>
<path d="M9628 13096 c-1 -2 -57 -7 -123 -10 -66 -4 -133 -9 -150 -11 -16 -2
-73 -6 -125 -10 -217 -13 -251 -20 -310 -59 -62 -41 -94 -134 -105 -311 -5
-75 -7 -104 -20 -265 -12 -149 -39 -293 -75 -395 -16 -44 -47 -132 -69 -195
-33 -96 -86 -301 -96 -375 -2 -17 -9 -53 -29 -160 -2 -11 -7 -45 -11 -75 -4
-30 -8 -62 -10 -70 -4 -25 -14 -102 -20 -155 -3 -27 -8 -66 -10 -85 -3 -19 -7
-62 -10 -95 -3 -33 -8 -76 -10 -95 -9 -84 -19 -273 -18 -360 0 -204 19 -267
174 -586 89 -184 143 -253 244 -308 118 -65 197 -76 348 -47 56 11 116 22 132
25 17 3 46 8 65 11 69 12 146 38 214 72 47 23 87 36 125 38 114 8 248 56 370
132 42 27 96 58 119 71 l44 23 66 -64 c37 -35 85 -74 107 -86 22 -12 54 -30
70 -41 60 -39 272 -138 350 -164 126 -40 202 -53 320 -51 123 3 214 22 315 68
189 85 327 219 503 487 147 224 209 368 232 536 3 22 39 121 81 220 98 234
184 451 184 464 0 6 4 18 9 28 5 9 23 58 41 107 18 50 74 187 125 305 115 265
142 337 210 565 142 481 132 666 -41 751 -48 23 -70 28 -133 28 -96 0 -164
-10 -243 -33 -35 -10 -83 -22 -107 -25 -71 -11 -138 -45 -161 -82 -12 -18 -32
-81 -45 -141 -41 -179 -69 -260 -273 -778 -71 -181 -149 -391 -172 -465 -64
-205 -70 -221 -110 -264 -84 -94 -139 -200 -214 -421 -87 -254 -248 -510 -350
-559 -50 -24 -76 -20 -144 22 -110 66 -165 132 -191 229 -12 43 -16 219 -6
263 3 14 8 38 11 54 3 16 18 61 34 100 42 103 52 151 53 246 0 231 -23 304
-113 359 -87 52 -217 -3 -279 -118 -17 -33 -31 -62 -31 -63 2 -6 -34 -87 -95
-213 -144 -299 -323 -557 -544 -784 -57 -60 -73 -71 -101 -71 -68 0 -179 95
-230 197 -24 49 -27 75 -17 168 4 33 14 130 22 215 9 85 18 171 20 190 2 19 7
62 11 95 3 33 8 67 9 75 2 8 6 40 10 70 4 30 36 143 72 250 74 221 101 309
109 360 3 19 8 38 10 41 2 4 6 37 10 75 4 47 19 99 46 164 22 52 98 239 168
416 111 278 127 328 125 370 -3 64 -19 102 -57 136 -18 15 -34 28 -37 29 -3 0
-13 2 -21 4 -56 12 -84 16 -150 21 -41 3 -80 7 -87 9 -6 2 -13 2 -15 1z"/>
<path d="M14155 13008 c-16 -5 -77 -8 -133 -8 -127 0 -192 -16 -326 -79 -102
-48 -160 -94 -177 -138 -31 -83 -13 -161 57 -235 45 -49 45 -49 40 -106 -3
-31 -8 -84 -11 -117 -3 -33 -8 -78 -10 -100 -3 -22 -7 -62 -10 -90 -3 -27 -8
-61 -10 -75 -2 -14 -7 -50 -10 -80 -3 -30 -9 -68 -12 -85 -3 -16 -7 -37 -8
-45 -6 -54 -61 -272 -120 -476 -34 -116 -131 -562 -171 -784 -55 -303 -76
-346 -247 -490 -90 -76 -112 -129 -92 -220 29 -129 101 -195 262 -238 108 -28
125 -21 210 93 71 95 167 186 226 213 23 10 67 25 97 32 117 27 197 90 231
182 42 111 317 1115 343 1248 2 14 14 68 26 120 12 52 23 103 25 113 2 10 7
27 10 37 3 10 8 28 10 39 10 42 14 58 44 171 17 63 33 131 36 150 3 19 12 62
20 95 7 33 16 78 19 100 4 22 13 78 22 123 22 120 23 133 8 176 -15 41 -17
114 -5 186 25 155 -89 287 -253 295 -33 1 -74 -2 -91 -7z"/>
<path d="M15471 12958 c-107 -15 -133 -36 -267 -223 -70 -97 -76 -111 -78
-169 -1 -40 6 -62 29 -101 16 -27 35 -66 42 -85 14 -38 11 -185 -5 -265 -6
-27 -13 -74 -17 -104 -4 -30 -9 -63 -11 -75 -2 -12 -7 -41 -10 -66 -3 -25 -8
-54 -10 -65 -2 -10 -6 -37 -9 -60 -9 -63 -15 -99 -20 -115 -2 -8 -6 -37 -10
-65 -9 -75 -41 -230 -66 -320 -12 -44 -25 -98 -30 -120 -4 -22 -12 -52 -18
-67 -6 -16 -9 -28 -6 -28 2 0 0 -14 -5 -30 -8 -29 -12 -59 -25 -205 -7 -73
-17 -115 -56 -225 -72 -201 -220 -735 -255 -918 -23 -118 -175 -647 -209 -727
-7 -16 -37 -91 -65 -165 -29 -74 -83 -207 -120 -295 -37 -88 -86 -209 -109
-270 -42 -109 -157 -350 -236 -495 -23 -41 -63 -115 -90 -165 -162 -304 -187
-346 -247 -422 -30 -37 -76 -99 -103 -138 -88 -126 -279 -330 -308 -330 -18 0
-74 113 -93 186 -9 35 -16 89 -16 119 1 30 2 105 3 165 1 92 -2 120 -21 170
-13 33 -26 65 -30 70 -19 24 -32 109 -35 215 -4 159 -27 274 -65 323 -28 35
-87 60 -137 58 -63 -2 -285 -48 -343 -71 -165 -65 -193 -99 -191 -234 1 -129
-28 -232 -119 -416 -81 -162 -96 -231 -79 -343 13 -82 33 -134 100 -273 84
-171 134 -218 369 -341 106 -55 167 -77 245 -87 48 -7 98 -17 105 -21 20 -12
95 -20 195 -20 183 0 234 16 485 143 370 189 473 267 595 449 30 45 59 84 65
88 5 3 43 54 85 113 41 59 98 139 126 177 28 39 80 131 116 205 80 169 100
207 128 245 68 92 74 105 63 131 -9 20 -7 34 10 77 11 28 27 72 35 97 9 25 25
69 36 98 13 33 21 75 21 114 0 45 9 82 34 147 19 47 62 163 96 256 34 94 68
184 76 202 8 17 14 34 14 37 0 3 9 25 19 49 34 74 76 172 77 177 0 3 5 16 11
30 60 144 117 325 161 510 11 47 48 151 82 230 63 147 67 164 57 235 -3 22 -1
60 4 85 11 44 113 362 150 468 19 52 25 93 33 225 2 37 9 74 15 80 12 16 58
151 66 197 18 103 39 193 62 260 38 115 104 323 108 340 2 8 8 33 14 55 6 23
13 86 16 140 17 319 38 434 121 685 31 90 56 174 57 185 6 78 -35 174 -93 217
-25 18 -112 52 -166 63 -48 11 -284 13 -353 3z"/>
</g>
</svg>
